<svg xmlns="http://www.w3.org/2000/svg" width="14" height="16" viewBox="0 0 14 16" fill="none">
  <path d="M7 0C3.15 0 0 2.88 0 6.4C0 10.72 6.125 15.6 6.3875 15.84C6.5625 15.92 6.825 16 7 16C7.175 16 7.4375 15.92 7.6125 15.84C7.875 15.6 14 10.72 14 6.4C14 2.88 10.85 0 7 0ZM7 14.16C5.1625 12.56 1.75 9.12 1.75 6.4C1.75 3.76 4.1125 1.6 7 1.6C9.8875 1.6 12.25 3.76 12.25 6.4C12.25 9.04 8.8375 12.56 7 14.16ZM7 3.2C5.075 3.2 3.5 4.64 3.5 6.4C3.5 8.16 5.075 9.6 7 9.6C8.925 9.6 10.5 8.16 10.5 6.4C10.5 4.64 8.925 3.2 7 3.2ZM7 8C6.0375 8 5.25 7.28 5.25 6.4C5.25 5.52 6.0375 4.8 7 4.8C7.9625 4.8 8.75 5.52 8.75 6.4C8.75 7.28 7.9625 8 7 8Z" fill="white"/>
</svg>