<svg xmlns="http://www.w3.org/2000/svg" width="16" height="16" viewBox="0 0 16 16" fill="none">
  <path d="M1.69507 1.57483H5.23056L6.36994 4.42368L4.53921 5.64417C4.4314 5.7161 4.34301 5.81353 4.28189 5.92781C4.22076 6.0421 4.18879 6.1697 4.18881 6.2993C4.19117 6.37332 4.18881 6.30009 4.18881 6.30009V6.31663C4.18921 6.35184 4.19078 6.38703 4.19353 6.42214C4.19773 6.48723 4.20692 6.57385 4.22109 6.68198C4.2518 6.89459 4.31086 7.1875 4.42582 7.53239C4.65732 8.22531 5.11087 9.12218 5.99435 10.0057C6.87782 10.8891 7.77469 11.3427 8.46682 11.5742C8.8125 11.6891 9.10463 11.7474 9.3188 11.7789C9.43962 11.7965 9.56135 11.807 9.68338 11.8104L9.69361 11.8112H9.69991C9.69991 11.8112 9.7881 11.8065 9.7007 11.8112C9.84689 11.8111 9.99018 11.7703 10.1145 11.6934C10.2388 11.6165 10.3393 11.5065 10.4046 11.3758L10.9322 10.3206L14.4252 10.9033V14.3049C12.7629 14.5451 8.27312 14.7821 4.74551 11.2545C1.2179 7.72688 1.45413 3.23627 1.69507 1.57483ZM5.82112 6.68198L7.24397 5.73394C7.54456 5.53344 7.76707 5.23568 7.87416 4.89059C7.98126 4.54551 7.96643 4.17409 7.83217 3.83864L6.69278 0.989778C6.57586 0.697573 6.37407 0.447104 6.11343 0.270683C5.8528 0.0942605 5.54529 -2.10975e-05 5.23056 3.54117e-09H1.65413C0.938371 3.54117e-09 0.265133 0.496857 0.147809 1.27325C-0.119912 3.03863 -0.482909 8.25287 3.63211 12.3679C7.74713 16.4829 12.9614 16.1191 14.7268 15.8522C15.5031 15.7341 16 15.0616 16 14.3459V10.9033C16 10.5305 15.8678 10.1698 15.6269 9.88532C15.386 9.60084 15.0519 9.41106 14.6842 9.34974L11.1913 8.76784C10.8591 8.71239 10.5178 8.7649 10.2177 8.91768C9.91748 9.07046 9.6742 9.31544 9.52353 9.61667L9.25109 10.1623C9.1548 10.1384 9.05946 10.1108 8.96526 10.0797C8.47706 9.91746 7.7991 9.5836 7.10775 8.89225C6.4164 8.2009 6.08254 7.52294 5.92033 7.03396C5.88209 6.91822 5.84925 6.80077 5.8219 6.68198H5.82112Z" fill="white"/>
</svg>