<svg width="25" height="15" viewBox="0 0 25 15" fill="none" xmlns="http://www.w3.org/2000/svg">
<path id="Vector" d="M21.741 11.2478V8.24783H24.7423V5.99876H21.741V2.99876H19.4919V5.99876H16.4919V8.24783H19.4919V11.2478H21.741ZM7.49938 2.91698C8.90335 2.91698 9.84882 3.51673 10.3866 4.02726L12.5204 1.95787C11.2218 0.743495 9.52788 3.42577e-07 7.49938 3.42577e-07C3.36307 -0.00123881 0 3.35936 0 7.49938C0 11.6394 3.36307 15 7.49938 15C11.8278 15 14.7014 11.9554 14.7014 7.67286C14.7014 7.04957 14.6221 6.60719 14.5118 6.13631H7.49566V8.93185H11.6245C11.4287 10.1103 10.3717 12.0991 7.49938 12.0991C5.01735 12.0991 2.99257 10.0359 2.99257 7.50929C2.99257 4.97894 5.01735 2.91698 7.49938 2.91698Z" fill="white"/>
</svg>
