<svg width="20" height="20" viewBox="0 0 20 20" fill="none" xmlns="http://www.w3.org/2000/svg">
<g id="bxl:instagram">
<path id="Vector" d="M9.99918 6.14746C8.97721 6.14746 7.9971 6.55344 7.27446 7.27608C6.55182 7.99872 6.14584 8.97883 6.14584 10.0008C6.14584 11.0228 6.55182 12.0029 7.27446 12.7255C7.9971 13.4482 8.97721 13.8541 9.99918 13.8541C11.0211 13.8541 12.0013 13.4482 12.7239 12.7255C13.4465 12.0029 13.8525 11.0228 13.8525 10.0008C13.8525 8.97883 13.4465 7.99872 12.7239 7.27608C12.0013 6.55344 11.0211 6.14746 9.99918 6.14746ZM9.99918 12.5033C9.67043 12.5033 9.34491 12.4385 9.04119 12.3127C8.73747 12.1869 8.46151 12.0025 8.22905 11.7701C7.9966 11.5376 7.8122 11.2617 7.6864 10.9579C7.56059 10.6542 7.49584 10.3287 7.49584 9.99996C7.49584 9.67122 7.56059 9.3457 7.6864 9.04198C7.8122 8.73826 7.9966 8.46229 8.22905 8.22984C8.46151 7.99738 8.73747 7.81299 9.04119 7.68718C9.34491 7.56138 9.67043 7.49663 9.99918 7.49663C10.6631 7.49663 11.2998 7.76037 11.7693 8.22984C12.2388 8.6993 12.5025 9.33604 12.5025 9.99996C12.5025 10.6639 12.2388 11.3006 11.7693 11.7701C11.2998 12.2396 10.6631 12.5033 9.99918 12.5033Z" fill="white"/>
<path id="Vector_2" d="M14.005 6.90421C14.5011 6.90421 14.9033 6.50201 14.9033 6.00588C14.9033 5.50974 14.5011 5.10754 14.005 5.10754C13.5089 5.10754 13.1067 5.50974 13.1067 6.00588C13.1067 6.50201 13.5089 6.90421 14.005 6.90421Z" fill="white"/>
<path id="Vector_3" d="M17.1108 5.09248C16.9182 4.59417 16.6234 4.14164 16.2456 3.76392C15.8677 3.38621 15.4151 3.09165 14.9167 2.89915C14.3337 2.68019 13.7177 2.56184 13.095 2.54915C12.2925 2.51415 12.0383 2.50415 10.0033 2.50415C7.96835 2.50415 7.70751 2.50415 6.91168 2.54915C6.28958 2.56203 5.67418 2.68037 5.09168 2.89915C4.59329 3.09165 4.14065 3.38621 3.76279 3.76392C3.38493 4.14164 3.0902 4.59417 2.89751 5.09248C2.67883 5.67556 2.56077 6.29154 2.54835 6.91415C2.51251 7.71582 2.50168 7.96998 2.50168 10.0058C2.50168 12.0416 2.50168 12.3 2.54835 13.0975C2.56085 13.7208 2.67835 14.3358 2.89751 14.92C3.09029 15.4184 3.38515 15.871 3.76316 16.2487C4.14117 16.6264 4.59397 16.9209 5.09251 17.1133C5.67378 17.3407 6.28952 17.4675 6.91334 17.4883C7.71584 17.5233 7.97001 17.5341 10.005 17.5341C12.04 17.5341 12.3008 17.5341 13.0967 17.4883C13.7193 17.4759 14.3353 17.3578 14.9183 17.1392C15.4168 16.9466 15.8695 16.6519 16.2474 16.274C16.6252 15.8961 16.9199 15.4435 17.1125 14.945C17.3317 14.3617 17.4492 13.7466 17.4617 13.1233C17.4975 12.3217 17.5083 12.0675 17.5083 10.0317C17.5083 7.99582 17.5083 7.73748 17.4617 6.93998C17.4517 6.30858 17.333 5.68361 17.1108 5.09248ZM16.0958 13.0358C16.0912 13.5161 16.0035 13.992 15.8367 14.4425C15.7109 14.7662 15.5192 15.0602 15.2735 15.3057C15.0279 15.5512 14.7338 15.7428 14.41 15.8683C13.9643 16.0335 13.4936 16.1211 13.0183 16.1275C12.2267 16.1641 12.0033 16.1733 9.97335 16.1733C7.94168 16.1733 7.73418 16.1733 6.92751 16.1275C6.45252 16.121 5.98213 16.0334 5.53668 15.8683C5.21181 15.7435 4.91659 15.5521 4.66991 15.3066C4.42324 15.0611 4.23055 14.7668 4.10418 14.4425C3.94069 13.9966 3.85309 13.5265 3.84501 13.0517C3.80918 12.26 3.80084 12.0367 3.80084 10.0067C3.80084 7.97665 3.80084 7.76832 3.84501 6.96082C3.84977 6.48077 3.93745 6.00517 4.10418 5.55498C4.35835 4.89748 4.87918 4.37998 5.53668 4.12832C5.98213 3.96328 6.45252 3.87562 6.92751 3.86915C7.72001 3.83332 7.94251 3.82332 9.97335 3.82332C12.0042 3.82332 12.2125 3.82332 13.0183 3.86915C13.4936 3.87553 13.9643 3.96318 14.41 4.12832C14.7339 4.25395 15.028 4.4457 15.2737 4.69134C15.5193 4.93698 15.711 5.23111 15.8367 5.55498C16.0002 6.00086 16.0878 6.47098 16.0958 6.94582C16.1317 7.73832 16.1408 7.96082 16.1408 9.99165C16.1408 12.0225 16.1408 12.24 16.105 13.0366L16.0958 13.0358Z" fill="white"/>
</g>
</svg>
