<svg width="22" height="22" viewBox="0 0 22 22" fill="none" xmlns="http://www.w3.org/2000/svg">
<g id="Frame" clip-path="url(#clip0_81_2772)">
<path id="Vector" d="M2.75 19.25L4.2625 15.7667C3.10536 14.1241 2.58744 12.1156 2.80596 10.1183C3.02447 8.12092 3.96439 6.27196 5.44932 4.9184C6.93424 3.56483 8.8621 2.7997 10.8711 2.76659C12.8801 2.73349 14.8321 3.43469 16.3608 4.73859C17.8896 6.0425 18.8899 7.85948 19.1741 9.84855C19.4583 11.8376 19.0068 13.862 17.9044 15.5419C16.802 17.2217 15.1245 18.4415 13.1866 18.9724C11.2487 19.5032 9.18374 19.3086 7.37917 18.425L2.75 19.25" stroke="white" stroke-width="1.8" stroke-linecap="round" stroke-linejoin="round"/>
<path id="Vector_2" d="M8.25 9.16666C8.25 9.28821 8.29829 9.40479 8.38424 9.49075C8.4702 9.5767 8.58678 9.62499 8.70833 9.62499C8.82989 9.62499 8.94647 9.5767 9.03242 9.49075C9.11838 9.40479 9.16667 9.28821 9.16667 9.16666V8.24999C9.16667 8.12843 9.11838 8.01185 9.03242 7.9259C8.94647 7.83994 8.82989 7.79166 8.70833 7.79166C8.58678 7.79166 8.4702 7.83994 8.38424 7.9259C8.29829 8.01185 8.25 8.12843 8.25 8.24999V9.16666ZM8.25 9.16666C8.25 10.3822 8.73289 11.548 9.59243 12.4076C10.452 13.2671 11.6178 13.75 12.8333 13.75H13.75C13.8716 13.75 13.9881 13.7017 14.0741 13.6157C14.16 13.5298 14.2083 13.4132 14.2083 13.2917C14.2083 13.1701 14.16 13.0535 14.0741 12.9676C13.9881 12.8816 13.8716 12.8333 13.75 12.8333H12.8333C12.7118 12.8333 12.5952 12.8816 12.5092 12.9676C12.4233 13.0535 12.375 13.1701 12.375 13.2917C12.375 13.4132 12.4233 13.5298 12.5092 13.6157C12.5952 13.7017 12.7118 13.75 12.8333 13.75" stroke="white" stroke-width="1.8" stroke-linecap="round" stroke-linejoin="round"/>
</g>
<defs>
<clipPath id="clip0_81_2772">
<rect width="22" height="22" fill="white"/>
</clipPath>
</defs>
</svg>
